<svg xmlns="http://www.w3.org/2000/svg" viewBox="0 0 965.77 287.31"><defs><style>.cls-1,.cls-2{fill:#f7f4e4;}.cls-2{font-size:65.38px;font-family:CalisMTBol;}.cls-3{letter-spacing:-0.01em;}.cls-4{letter-spacing:-0.04em;}.cls-5,.cls-6{fill:#dc7727;}.cls-5{fill-rule:evenodd;}</style></defs><g id="Layer_2" data-name="Layer 2"><g id="Design"><path class="cls-1" d="M29.13,184v8.82H19.69V234.1H9.91V192.77H.47V184Z"/><path class="cls-1" d="M43.56,213.71V234.1H33.74V184h9.82v20.33H59.68V184H69.5V234.1H59.68V213.71Z"/><path class="cls-1" d="M104.91,234.1H77.83V184h27.08v8.82H87.55V204.2h17.36v8.68H87.55v12.41h17.36Z"/><path class="cls-1" d="M843.51,279c0,2.55.48,4.34,1.42,5.38a5.15,5.15,0,0,0,4,1.7,4.88,4.88,0,0,0,3.11-1.13,6.75,6.75,0,0,0,1.84-2.55l.71.28a7.35,7.35,0,0,1-2,3,5.4,5.4,0,0,1-4,1.55,7.32,7.32,0,0,1-5.38-2.12,8.6,8.6,0,0,1-2-6.09,8.7,8.7,0,0,1,2-5.94,6.46,6.46,0,0,1,5.1-2.26A6.64,6.64,0,0,1,853,272.6c1.32,1.22,2,3.35,2,6.36Zm9.06-.84a7.37,7.37,0,0,0-1.13-4.82,3.65,3.65,0,0,0-3.11-1.55,4.39,4.39,0,0,0-3.54,1.7,7.23,7.23,0,0,0-1.28,4.67Z"/><path class="cls-1" d="M869.55,282.5a4,4,0,0,1-1.56,3.26,5.41,5.41,0,0,1-3.53,1.27,7,7,0,0,1-2.69-.42,3.83,3.83,0,0,0-1.42-.29,1.58,1.58,0,0,0-.7.14,1.62,1.62,0,0,1-.71.57l-.43-5.24.85-.14a5.72,5.72,0,0,0,1.56,3.4,5.17,5.17,0,0,0,3.54,1.13,4,4,0,0,0,2.4-.71,2.75,2.75,0,0,0,.14-4.1,6.66,6.66,0,0,0-2.12-1.41c-.94-.48-1.51-.76-1.7-.85a7.06,7.06,0,0,1-1.27-.57,9.65,9.65,0,0,1-2-1.56,2.55,2.55,0,0,1-.85-1.84,3.93,3.93,0,0,1,1.41-3.25,5.32,5.32,0,0,1,3.4-1.13A6,6,0,0,1,866,271a3.29,3.29,0,0,0,1.28.42.77.77,0,0,0,.56-.14,2.86,2.86,0,0,0,.71-.56l.56,4.67-.84.14a6.06,6.06,0,0,0-1.56-3,3.64,3.64,0,0,0-2.69-1,3.89,3.89,0,0,0-2.54.7,2.67,2.67,0,0,0-.71,2,2,2,0,0,0,.71,1.7,17.4,17.4,0,0,0,2,1.14l1.13.56c.47.19,1.08.47,1.84.85a7,7,0,0,1,2.12,1.7A3.45,3.45,0,0,1,869.55,282.5Z"/><path class="cls-1" d="M882.57,283.92a3.3,3.3,0,0,1-1.13,2.26,4,4,0,0,1-2.69.85,3.68,3.68,0,0,1-2.69-1.13q-1-1-1-4V271.89h-3V271h1.27a1.75,1.75,0,0,0,1.84-1.13,9.52,9.52,0,0,0,.85-3.26l.14-1.13h.85V271h4.53v.85h-4.53V282.5c0,1.42.23,2.31.71,2.69a2.42,2.42,0,0,0,1.55.57,3,3,0,0,0,1.7-.57,2.34,2.34,0,0,0,.85-1.56Z"/><path class="cls-1" d="M889.64,287.31a2.41,2.41,0,0,1-1.55-.56,2.42,2.42,0,0,1,0-3.12,2.46,2.46,0,0,1,1.55-.56,2,2,0,0,1,1.42.56,2.21,2.21,0,0,1,.71,1.56,2.16,2.16,0,0,1-2.13,2.12Z"/><path class="cls-1" d="M905.77,262.27v21.51a2,2,0,0,0,.71,1.69,3.07,3.07,0,0,0,2,.57h1.42v.85H899.55V286h1.27a2.76,2.76,0,0,0,2-.57,2,2,0,0,0,.71-1.69V266.65a1.36,1.36,0,0,0-.43-1,1.38,1.38,0,0,0-1-.28h-2.55v-.85h1.27a5.4,5.4,0,0,0,2.69-.57,3.71,3.71,0,0,0,1.7-1.69Z"/><path class="cls-1" d="M921.34,277.83a6.15,6.15,0,0,1-4.53-1.84q-1.69-1.69-1.7-5.66a8.73,8.73,0,0,1,1.84-5.66,7,7,0,0,1,10.76.57c1.32,1.89,2,4.62,2,8.21a18.07,18.07,0,0,1-2.41,9.76,7,7,0,0,1-6.37,4,6.16,6.16,0,0,1-3.25-.85,2.59,2.59,0,0,1-1.27-2.26,2.45,2.45,0,0,1,.28-1.13,1.48,1.48,0,0,1,1.27-.57,1.13,1.13,0,0,1,1.13.57,4.11,4.11,0,0,1,.29,1.55,1.89,1.89,0,0,0,.14.85,1.56,1.56,0,0,0,.28.57.62.62,0,0,0,.43.14,2.75,2.75,0,0,0,.85.14q2.54,0,4.1-2.83c1-1.89,1.65-5,1.84-9.48a7,7,0,0,1-2.12,2.83A5.48,5.48,0,0,1,921.34,277.83Zm-3.82-7.64a7.88,7.88,0,0,0,1.13,4.67,3.79,3.79,0,0,0,3.11,1.7,4.58,4.58,0,0,0,3.68-2A6.13,6.13,0,0,0,927,270.9a11.74,11.74,0,0,0-1.13-5.52,3.92,3.92,0,0,0-3.68-2,3.84,3.84,0,0,0-3.54,1.84A9.8,9.8,0,0,0,917.52,270.19Z"/><path class="cls-1" d="M941.57,271.46q3.4,0,4.81,2.27a9.19,9.19,0,0,1,1.56,5.09c0,2.74-.71,4.81-2.12,6.23a6.71,6.71,0,0,1-10.47-.85c-1.33-1.89-2-4.67-2-8.35q0-6.51,2.4-10.05a7.57,7.57,0,0,1,6.51-3.39,4.21,4.21,0,0,1,3.11,1.13c.85.85,1.28,1.51,1.28,2a1.68,1.68,0,0,1-.43,1.27,1.25,1.25,0,0,1-1.13.43,1.5,1.5,0,0,1-1.13-.43,1.35,1.35,0,0,1-.28-1v-.56a1.31,1.31,0,0,0-.29-1.56,3,3,0,0,0-1.55-.28,5.11,5.11,0,0,0-4.11,2.12q-1.69,2.26-1.7,9.62a7.16,7.16,0,0,1,2.27-2.83A6.25,6.25,0,0,1,941.57,271.46Zm-5.52,5.81a12.38,12.38,0,0,0,1.42,6.51c1,1.6,2.26,2.4,3.68,2.4a3.78,3.78,0,0,0,3.25-1.55c.76-1,1.13-3,1.13-5.81a7.09,7.09,0,0,0-1.27-4.38,3.38,3.38,0,0,0-2.83-1.56,5.2,5.2,0,0,0-3,.85A9.67,9.67,0,0,0,936.05,277.27Z"/><path class="cls-1" d="M965.77,263.68A55.75,55.75,0,0,0,961,273a22.57,22.57,0,0,0-1.7,8.07v1.55c.09,1.42.14,2.27.14,2.55a2.23,2.23,0,0,1-.42,1.56,1.28,1.28,0,0,1-1.13.42,1.79,1.79,0,0,1-1.28-.56,2.49,2.49,0,0,1-.42-1.7,22.65,22.65,0,0,1,1.13-6.65q1.13-3.69,6.51-13.45h-7.08a3.47,3.47,0,0,0-2.54,1,5.89,5.89,0,0,0-1.28,3l-.85-.15,1-5.94h12.74Z"/><path class="cls-1" d="M124.1,235.11V144.29h49v16H141.69V181h31.44v15.73H141.69v38.42Z"/><path class="cls-1" d="M185.67,235.11V144.29h17.77v90.82Z"/><path class="cls-1" d="M236.38,235.11H218.61V144.29h21.58a120.29,120.29,0,0,1,15.31.71,31.53,31.53,0,0,1,8.58,2.34,27,27,0,0,1,11.79,10.11,28.07,28.07,0,0,1,4.05,15.22q0,10.54-5.8,17.87a25.83,25.83,0,0,1-15.78,9.33L281,235.11h-21.2l-23.46-42.17Zm0-46.66h3.93q10.8,0,16.38-3.9t5.58-11.38q0-7.24-4.68-10.67T243,159.07h-6.62Z"/><path class="cls-1" d="M340.31,235.11h-49V144.29h49v16H308.87V181h31.44v15.73H308.87v22.45h31.44Z"/><path class="cls-1" d="M372.93,235.11H355.16V144.29h22.58a77.39,77.39,0,0,1,13.57.93,21.39,21.39,0,0,1,8,3,26.67,26.67,0,0,1,8.82,10,28.63,28.63,0,0,1,3.22,13.35q0,13-8.61,20.83t-23.2,7.8h-6.62Zm0-50.21h4.68q7.42,0,11.39-3.22t4-9.2q0-6.18-3.84-9.2t-11.63-3h-4.56Z"/><path class="cls-1" d="M466.94,235.11h-46.1V144.29h17.59v74.85h28.51Z"/><path class="cls-1" d="M494.89,216.09l-7.05,19h-18.4l35.24-90.82H520l34.75,90.82h-19l-7.18-19Zm27.82-16.84L512,170l-11,29.26Z"/><path class="cls-1" d="M641.73,171.23H620a25.19,25.19,0,0,0-9.19-7.85,27.18,27.18,0,0,0-12.14-2.63,26.83,26.83,0,0,0-10.42,2.06,26.2,26.2,0,0,0-8.73,6,29.48,29.48,0,0,0-6.27,9.51,29.05,29.05,0,0,0-2.21,11.08q0,12.48,8,20.92a26,26,0,0,0,19.62,8.46,27.93,27.93,0,0,0,12-2.5,21.42,21.42,0,0,0,8.64-7.23h21.77q-6.36,13.91-17,20.9t-25.32,7A45,45,0,0,1,580,233a46.44,46.44,0,0,1-15.51-11.66,44.17,44.17,0,0,1-8.79-14.63,50.73,50.73,0,0,1-3-17.56,45.58,45.58,0,0,1,3.62-18,48.91,48.91,0,0,1,10.6-15.5,45.74,45.74,0,0,1,14.7-9.82,44.91,44.91,0,0,1,17.37-3.35q14.91,0,25.48,7.12T641.73,171.23Z"/><path class="cls-1" d="M701.49,235.11h-49V144.29h49v16H670.05V181h31.44v15.73H670.05v22.45h31.44Z"/><path class="cls-1" d="M838.86,171.23H817.14a25.06,25.06,0,0,0-9.2-7.85,27.1,27.1,0,0,0-12.13-2.63,26.74,26.74,0,0,0-10.41,2.06,26,26,0,0,0-8.73,6,29.16,29.16,0,0,0-6.27,9.51,28.69,28.69,0,0,0-2.22,11.08q0,12.48,8,20.92a26,26,0,0,0,19.62,8.46,27.93,27.93,0,0,0,12-2.5,21.29,21.29,0,0,0,8.64-7.23h21.77q-6.36,13.91-17,20.9t-25.32,7A45,45,0,0,1,777.07,233a46.31,46.31,0,0,1-15.5-11.66,44.2,44.2,0,0,1-8.8-14.63,50.72,50.72,0,0,1-3-17.56,45.57,45.57,0,0,1,3.61-18A49,49,0,0,1,764,155.64a45.76,45.76,0,0,1,14.68-9.82,45.07,45.07,0,0,1,17.38-3.35q14.91,0,25.48,7.12T838.86,171.23Z"/><path class="cls-1" d="M845.59,189.51a48.89,48.89,0,0,1,2-14.13,44.89,44.89,0,0,1,5.93-12.44,46.53,46.53,0,0,1,39.1-20.47,44.89,44.89,0,0,1,17.44,3.5,46.78,46.78,0,0,1,15,10,47.57,47.57,0,0,1,10.36,15.28A45.79,45.79,0,0,1,939,189.14a49.82,49.82,0,0,1-3.34,18.27,47.74,47.74,0,0,1-25.08,25.8,45.76,45.76,0,0,1-18.18,3.71,47.59,47.59,0,0,1-18.72-3.62,43.8,43.8,0,0,1-15.15-10.73,46.3,46.3,0,0,1-9.64-15.12A48.94,48.94,0,0,1,845.59,189.51Zm18.66-.62a30.2,30.2,0,0,0,1.93,10.91,28.91,28.91,0,0,0,5.74,9.24,29.88,29.88,0,0,0,9.48,7,25.64,25.64,0,0,0,11,2.47,26.54,26.54,0,0,0,20-8.48q8.07-8.49,8.07-21.15a27.08,27.08,0,0,0-8.14-19.81,26.57,26.57,0,0,0-19.56-8.2,27.75,27.75,0,0,0-20.21,8.17A26.81,26.81,0,0,0,864.25,188.89Z"/><path class="cls-1" d="M964,235.11H948V218h16Z"/><text class="cls-2" transform="translate(123.01 118.75)">HOUSE <tspan class="cls-3" x="208.24" y="0">B</tspan><tspan x="242.7" y="0">Y</tspan><tspan class="cls-4" x="278.07" y="0"> </tspan><tspan x="289.25" y="0">THE SCHOOL</tspan></text><path class="cls-5" d="M41.86,6.51c8-7.91,28.41-8.9,37.64-1.36C72.37,6.65,66.74,9.62,65.56,17c-.77,1.07-.77,5.27,0,6.35.8,8.84,7.46,14.68,13,20.87C83.83,50,89,56.39,93.91,62.77c10,13,21.82,29.42,20.92,51.28-1.11,27.06-18.43,45.14-43.23,51.72,9.16-6.94,17.42-14.75,19.06-29a16.37,16.37,0,0,0,0-8.62c-.58-5.78-2.86-9.9-6.51-12.7-1.92,6.89-7.31,10.4-14.87,11.8H64.63c-1.48-.08-2-1-3.72-.91,2.57-4.17,9.16-8.29,9.3-16.34a16.37,16.37,0,0,0,0-8.62c-.43-8.65-4.5-13.76-8.37-19.06a44.34,44.34,0,0,0-6-5.9c-1.26-.27-1.16-1.89-2.79-1.81.32,2.26,1.45,3.73,1.4,6.35v5c-.3,10.3-5.78,15.54-10.7,21.33A9.49,9.49,0,0,0,40.93,110a26,26,0,0,0-4.65,4.54V115c-4.7,4.79-9,10-10.23,18.15a20,20,0,0,0,0,9.53c1.15,11.13,8.66,18.47,14.41,23.6C22,162.17,11.22,153.86,4.67,140.81c-6.75-13.44-6.09-32.1,1.39-44,3.7-5.88,12.31-12.65,12.09-22.68C18,65.91,11.87,60.8,4.67,60.05c3.44-3.9,8.84-5.89,15.34-6.81h5.11c3.05-.1,4.81,1.06,7.44,1.37-.48-4.38-4.27-9.45-3.72-16.34v-5.9a33.91,33.91,0,0,1,7.9-20.87A25.31,25.31,0,0,0,41.39,7C41.67,6.94,41.94,6.89,41.86,6.51Z"/><rect class="cls-6" x="123.01" y="129.92" width="807.63" height="2"/></g></g></svg>