<?xml version="1.0" encoding="utf-8"?>
<!-- Generator: Adobe Illustrator 26.0.1, SVG Export Plug-In . SVG Version: 6.00 Build 0)  -->
<svg version="1.1" xmlns="http://www.w3.org/2000/svg" xmlns:xlink="http://www.w3.org/1999/xlink" x="0px" y="0px"
	 viewBox="0 0 1186 452" style="enable-background:new 0 0 1186 452;" xml:space="preserve">
<style type="text/css">
	.st0{fill:#7C887B;}
	.st1{fill:#F7F4E4;}
	.st2{font-family:'CalisMTBol';}
	.st3{font-size:65.3822px;}
	.st4{fill-rule:evenodd;clip-rule:evenodd;fill:#DC7727;}
</style>
<g id="background">
	<path class="st0" d="M1092.4,20H247.1H92.2h-72v50.8v109.3v207c0,28.1,32.2,50.8,72,50.8h845.3h154.9h72v-50.8V277.8v-207
		C1164.4,42.7,1132.2,20,1092.4,20z"/>
</g>
<g id="Design">
	<g>
		<path class="st1" d="M139.2,266.3v8.8h-9.4v41.3H120v-41.3h-9.4v-8.8H139.2z"/>
		<path class="st1" d="M153.7,296.1v20.4h-9.8v-50.2h9.8v20.3h16.1v-20.3h9.8v50.2h-9.8v-20.4H153.7z"/>
		<path class="st1" d="M215,316.4h-27.1v-50.2H215v8.8h-17.4v11.4H215v8.7h-17.4v12.4H215V316.4z"/>
	</g>
	<g>
		<g>
			<path class="st1" d="M953.6,361.3c0,2.5,0.5,4.3,1.4,5.4c1,1.1,2.4,1.7,4,1.7c1.1,0,2.2-0.4,3.1-1.1c0.8-0.8,1.5-1.6,1.8-2.5
				l0.7,0.3c-0.3,0.9-0.9,1.9-2,3c-1,1-2.4,1.6-4,1.6c-2.2,0-4-0.7-5.4-2.1c-1.3-1.4-2-3.4-2-6.1c0-2.5,0.7-4.4,2-5.9
				c1.3-1.5,3-2.3,5.1-2.3c1.8,0,3.3,0.6,4.7,1.8c1.3,1.2,2,3.3,2,6.4H953.6z M962.7,360.5c0.1-2.1-0.3-3.7-1.1-4.8
				c-0.8-1-1.8-1.6-3.1-1.6c-1.4,0-2.6,0.6-3.5,1.7c-0.8,1-1.3,2.6-1.3,4.7H962.7z"/>
			<path class="st1" d="M979.7,364.8c0,1.3-0.5,2.4-1.6,3.3c-1,0.8-2.2,1.3-3.5,1.3c-1.1,0-2-0.1-2.7-0.4c-0.5-0.2-0.9-0.3-1.4-0.3
				c-0.3,0-0.5,0-0.7,0.1c-0.1,0.2-0.3,0.4-0.7,0.6l-0.4-5.2l0.8-0.1c0.3,1.6,0.8,2.7,1.6,3.4c0.8,0.8,2,1.1,3.5,1.1
				c0.9,0,1.7-0.2,2.4-0.7c0.7-0.5,1-1.2,1-2.1c0-0.8-0.3-1.5-0.8-2c-0.6-0.6-1.3-1-2.1-1.4c-0.9-0.5-1.5-0.8-1.7-0.8
				c-0.1,0-0.5-0.2-1.3-0.6c-0.7-0.4-1.3-0.9-2-1.6c-0.6-0.6-0.8-1.2-0.8-1.8c0-1.4,0.5-2.5,1.4-3.3c0.9-0.8,2.1-1.1,3.4-1.1
				c0.9,0,1.6,0.1,2.1,0.3c0.6,0.3,1,0.4,1.3,0.4c0.3,0,0.5,0,0.6-0.1c0.2-0.1,0.4-0.3,0.7-0.6l0.6,4.7l-0.8,0.1
				c-0.3-1.2-0.8-2.2-1.6-3c-0.7-0.7-1.6-1-2.7-1c-1.1,0-2,0.2-2.5,0.7c-0.5,0.5-0.7,1.1-0.7,2c0,0.8,0.2,1.3,0.7,1.7
				c0.6,0.4,1.2,0.8,2,1.1c0.4,0.2,0.8,0.4,1.1,0.6c0.5,0.2,1.1,0.5,1.8,0.8c0.8,0.4,1.5,0.9,2.1,1.7
				C979.3,363.3,979.7,364.1,979.7,364.8z"/>
			<path class="st1" d="M992.7,366.3c-0.1,0.9-0.5,1.7-1.1,2.3c-0.7,0.6-1.6,0.8-2.7,0.8c-1,0-1.9-0.4-2.7-1.1c-0.7-0.7-1-2-1-4v-10
				h-3v-0.8h1.3c0.9,0,1.6-0.4,1.8-1.1c0.4-0.7,0.7-1.7,0.8-3.3l0.1-1.1h0.8v5.5h4.5v0.8h-4.5v10.6c0,1.4,0.2,2.3,0.7,2.7
				c0.5,0.4,1,0.6,1.6,0.6c0.6,0,1.1-0.2,1.7-0.6c0.5-0.4,0.8-0.9,0.8-1.6L992.7,366.3z"/>
			<path class="st1" d="M999.8,369.7c-0.6,0-1.1-0.2-1.6-0.6c-0.4-0.4-0.6-0.9-0.6-1.6c0-0.7,0.2-1.2,0.6-1.6c0.5-0.4,1-0.6,1.6-0.6
				c0.6,0,1,0.2,1.4,0.6c0.5,0.5,0.7,1,0.7,1.6c0,0.7-0.2,1.2-0.7,1.6C1000.8,369.5,1000.3,369.7,999.8,369.7z"/>
			<path class="st1" d="M1015.9,344.6v21.5c0,0.8,0.2,1.3,0.7,1.7c0.5,0.4,1.1,0.6,2,0.6h1.4v0.8h-10.3v-0.8h1.3
				c0.9,0,1.6-0.2,2-0.6c0.5-0.4,0.7-0.9,0.7-1.7V349c0-0.4-0.1-0.7-0.4-1c-0.2-0.2-0.5-0.3-1-0.3h-2.5v-0.8h1.3
				c1.1,0,2-0.2,2.7-0.6c0.8-0.4,1.3-0.9,1.7-1.7H1015.9z"/>
			<path class="st1" d="M1031.5,360.2c-1.8,0-3.3-0.6-4.5-1.8c-1.1-1.1-1.7-3-1.7-5.7c0-2.3,0.6-4.2,1.8-5.7c1.2-1.5,3-2.3,5.2-2.3
				c2.4,0,4.2,0.9,5.5,2.8c1.3,1.9,2,4.6,2,8.2c0,4-0.8,7.2-2.4,9.8c-1.5,2.6-3.6,4-6.4,4c-1.2,0-2.3-0.3-3.3-0.8
				c-0.8-0.6-1.3-1.3-1.3-2.3c0-0.4,0.1-0.8,0.3-1.1c0.3-0.4,0.7-0.6,1.3-0.6c0.6,0,0.9,0.2,1.1,0.6c0.2,0.5,0.3,1,0.3,1.6
				c0,0.4,0,0.7,0.1,0.8c0.1,0.3,0.2,0.5,0.3,0.6c0.1,0.1,0.2,0.1,0.4,0.1c0.3,0.1,0.6,0.1,0.8,0.1c1.7,0,3.1-0.9,4.1-2.8
				c1-1.9,1.7-5,1.8-9.5c-0.5,1.1-1.2,2.1-2.1,2.8C1034,359.8,1032.9,360.2,1031.5,360.2z M1027.6,352.5c0,2.1,0.4,3.6,1.1,4.7
				c0.8,1.1,1.9,1.7,3.1,1.7c1.4,0,2.6-0.7,3.7-2c1-1.3,1.6-2.5,1.6-3.7c0-2.3-0.4-4.1-1.1-5.5c-0.8-1.3-2-2-3.7-2
				c-1.6,0-2.8,0.6-3.5,1.8C1028,348.9,1027.6,350.6,1027.6,352.5z"/>
			<path class="st1" d="M1051.7,353.8c2.3,0,3.9,0.8,4.8,2.3c1,1.6,1.6,3.3,1.6,5.1c0,2.7-0.7,4.8-2.1,6.2c-1.4,1.4-3,2.1-4.7,2.1
				c-2.5,0-4.5-1-5.8-3c-1.3-1.9-2-4.7-2-8.3c0-4.3,0.8-7.7,2.4-10c1.6-2.3,3.8-3.4,6.5-3.4c1.3,0,2.4,0.4,3.1,1.1
				c0.8,0.8,1.3,1.5,1.3,2c0,0.6-0.1,1-0.4,1.3c-0.2,0.3-0.6,0.4-1.1,0.4c-0.5,0-0.8-0.1-1.1-0.4c-0.2-0.2-0.3-0.5-0.3-1
				c0-0.2,0-0.4,0-0.6c0.1-0.2,0.1-0.4,0.1-0.6c0-0.4-0.1-0.7-0.4-1c-0.3-0.2-0.8-0.3-1.6-0.3c-1.6,0-3,0.7-4.1,2.1
				c-1.1,1.5-1.7,4.7-1.7,9.6c0.7-1.3,1.4-2.3,2.3-2.8C1049.4,354.1,1050.5,353.8,1051.7,353.8z M1046.2,359.6c0,2.8,0.5,5,1.4,6.5
				c1,1.6,2.3,2.4,3.7,2.4s2.5-0.5,3.3-1.6c0.8-1,1.1-3,1.1-5.8c0-1.8-0.4-3.3-1.3-4.4c-0.8-1-1.7-1.6-2.8-1.6c-1.1,0-2.1,0.3-3,0.8
				C1047.8,356.6,1047,357.8,1046.2,359.6z"/>
			<path class="st1" d="M1075.9,346c-2.2,3.5-3.8,6.6-4.8,9.3c-1.1,2.9-1.7,5.6-1.7,8.1c0,0.6,0,1.1,0,1.6c0.1,1.4,0.1,2.3,0.1,2.5
				c0,0.8-0.1,1.3-0.4,1.6c-0.2,0.3-0.6,0.4-1.1,0.4c-0.5,0-0.9-0.2-1.3-0.6c-0.3-0.3-0.4-0.8-0.4-1.7c0-2,0.4-4.2,1.1-6.6
				c0.8-2.5,2.9-6.9,6.5-13.4h-7.1c-1,0-1.9,0.3-2.5,1c-0.6,0.6-1,1.6-1.3,3l-0.8-0.1l1-5.9h12.7V346z"/>
		</g>
	</g>
	<g>
		<path class="st1" d="M234.2,317.5v-90.8h49v16h-31.4v20.7h31.4V279h-31.4v38.4H234.2z"/>
		<path class="st1" d="M295.8,317.5v-90.8h17.8v90.8H295.8z"/>
		<path class="st1" d="M346.5,317.5h-17.8v-90.8h21.6c6.9,0,12,0.2,15.3,0.7c3.3,0.5,6.2,1.3,8.6,2.3c5.2,2.4,9.1,5.8,11.8,10.1
			c2.7,4.3,4.1,9.4,4.1,15.2c0,7-1.9,13-5.8,17.9c-3.9,4.9-9.1,8-15.8,9.3l22.7,35.2H370l-23.5-42.2V317.5z M346.5,270.8h3.9
			c7.2,0,12.7-1.3,16.4-3.9c3.7-2.6,5.6-6.4,5.6-11.4c0-4.8-1.6-8.4-4.7-10.7c-3.1-2.3-8-3.4-14.6-3.4h-6.6V270.8z"/>
		<path class="st1" d="M450.4,317.5h-49v-90.8h49v16H419v20.7h31.4V279H419v22.5h31.4V317.5z"/>
		<path class="st1" d="M483,317.5h-17.8v-90.8h22.6c5.7,0,10.3,0.3,13.6,0.9c3.3,0.6,6,1.6,8,3c3.7,2.5,6.7,5.9,8.8,10
			c2.1,4.2,3.2,8.6,3.2,13.3c0,8.7-2.9,15.6-8.6,20.8c-5.7,5.2-13.5,7.8-23.2,7.8H483V317.5z M483,267.2h4.7c5,0,8.7-1.1,11.4-3.2
			c2.6-2.1,4-5.2,4-9.2c0-4.1-1.3-7.2-3.8-9.2c-2.6-2-6.4-3-11.6-3H483V267.2z"/>
		<path class="st1" d="M577.1,317.5H531v-90.8h17.6v74.9h28.5V317.5z"/>
		<path class="st1" d="M605,298.4l-7,19h-18.4l35.2-90.8h15.3l34.7,90.8h-19l-7.2-19H605z M632.8,281.6l-10.7-29.3l-11,29.3H632.8z"
			/>
		<path class="st1" d="M751.8,253.6h-21.7c-2.6-3.5-5.7-6.1-9.2-7.9c-3.6-1.7-7.6-2.6-12.1-2.6c-3.7,0-7.1,0.7-10.4,2.1
			c-3.3,1.4-6.2,3.4-8.7,6c-2.7,2.8-4.8,5.9-6.3,9.5c-1.5,3.6-2.2,7.3-2.2,11.1c0,8.3,2.7,15.3,8,20.9c5.3,5.6,11.9,8.5,19.6,8.5
			c4.5,0,8.5-0.8,12-2.5c3.5-1.7,6.4-4.1,8.6-7.2h21.8c-4.2,9.3-9.9,16.2-17,20.9c-7.1,4.7-15.5,7-25.3,7c-6.8,0-13.1-1.3-18.9-3.9
			c-5.8-2.6-10.9-6.5-15.5-11.7c-3.9-4.3-6.8-9.2-8.8-14.6c-2-5.5-3-11.3-3-17.6c0-6.3,1.2-12.3,3.6-18c2.4-5.7,5.9-10.8,10.6-15.5
			c4.4-4.3,9.3-7.6,14.7-9.8c5.4-2.2,11.2-3.3,17.4-3.3c9.9,0,18.4,2.4,25.5,7.1C741.6,236.7,747.4,243.9,751.8,253.6z"/>
		<path class="st1" d="M811.6,317.5h-49v-90.8h49v16h-31.4v20.7h31.4V279h-31.4v22.5h31.4V317.5z"/>
		<path class="st1" d="M949,253.6h-21.7c-2.6-3.5-5.6-6.1-9.2-7.9c-3.6-1.7-7.6-2.6-12.1-2.6c-3.7,0-7.1,0.7-10.4,2.1
			c-3.3,1.4-6.2,3.4-8.7,6c-2.7,2.8-4.8,5.9-6.3,9.5c-1.5,3.6-2.2,7.3-2.2,11.1c0,8.3,2.7,15.3,8,20.9c5.3,5.6,11.9,8.5,19.6,8.5
			c4.5,0,8.5-0.8,12-2.5c3.6-1.7,6.4-4.1,8.6-7.2h21.8c-4.2,9.3-9.9,16.2-17,20.9c-7.1,4.7-15.5,7-25.3,7c-6.8,0-13.1-1.3-18.9-3.9
			c-5.8-2.6-10.9-6.5-15.5-11.7c-3.9-4.3-6.8-9.2-8.8-14.6c-2-5.5-3-11.3-3-17.6c0-6.3,1.2-12.3,3.6-18c2.4-5.7,5.9-10.8,10.6-15.5
			c4.4-4.3,9.3-7.6,14.7-9.8c5.4-2.2,11.2-3.3,17.4-3.3c9.9,0,18.4,2.4,25.5,7.1C938.7,236.7,944.5,243.9,949,253.6z"/>
		<path class="st1" d="M955.7,271.9c0-5,0.7-9.7,2-14.1c1.3-4.4,3.3-8.6,5.9-12.4c4.5-6.5,10.1-11.6,16.9-15.1
			c6.8-3.6,14.2-5.3,22.2-5.3c6,0,11.8,1.2,17.4,3.5c5.6,2.3,10.6,5.7,15,10c4.5,4.5,8,9.6,10.4,15.3c2.4,5.7,3.6,11.6,3.6,17.8
			c0,6.5-1.1,12.6-3.3,18.3c-2.2,5.7-5.5,10.8-9.8,15.2c-4.4,4.6-9.5,8.2-15.2,10.6c-5.8,2.5-11.9,3.7-18.2,3.7
			c-6.8,0-13-1.2-18.7-3.6c-5.7-2.4-10.7-6-15.2-10.7c-4.2-4.5-7.5-9.5-9.6-15.1C956.8,284.2,955.7,278.2,955.7,271.9z M974.4,271.2
			c0,3.9,0.6,7.6,1.9,10.9c1.3,3.4,3.2,6.4,5.7,9.2c2.8,3,6,5.4,9.5,7c3.5,1.6,7.2,2.5,11,2.5c7.9,0,14.6-2.8,20-8.5
			c5.4-5.7,8.1-12.7,8.1-21.1c0-7.7-2.7-14.3-8.1-19.8c-5.4-5.5-12-8.2-19.6-8.2c-7.9,0-14.7,2.7-20.2,8.2
			C977.1,256.8,974.4,263.5,974.4,271.2z"/>
		<path class="st1" d="M1074.1,317.5h-16v-17.1h16V317.5z"/>
	</g>
	<text transform="matrix(1 0 0 1 233.125 201.0913)" class="st1 st2 st3">HOUSE BY THE SCHOOL</text>
	<path class="st4" d="M152,88.9c8-7.9,28.4-8.9,37.6-1.4c-7.1,1.5-12.8,4.5-13.9,11.8c-0.8,1.1-0.8,5.3,0,6.4
		c0.8,8.8,7.5,14.7,13,20.9c5.3,5.9,10.4,12.2,15.3,18.6c10,13,21.8,29.4,20.9,51.3c-1.1,27.1-18.4,45.1-43.2,51.7
		c9.2-6.9,17.4-14.8,19.1-29c0.8-1.8,0.8-6.8,0-8.6c-0.6-5.8-2.9-9.9-6.5-12.7c-1.9,6.9-7.3,10.4-14.9,11.8c-1.5,0-3.1,0-4.6,0
		c-1.5-0.1-2-1-3.7-0.9c2.6-4.2,9.2-8.3,9.3-16.3c0.8-1.8,0.8-6.8,0-8.6c-0.4-8.7-4.5-13.8-8.4-19.1c-1.8-2.2-3.8-4.1-6-5.9
		c-1.3-0.3-1.2-1.9-2.8-1.8c0.3,2.3,1.4,3.7,1.4,6.4c0,1.7,0,3.3,0,5c-0.3,10.3-5.8,15.5-10.7,21.3c-1.1,0.7-2.1,1.6-2.8,2.7
		c-1.7,1.3-3.3,2.8-4.6,4.5c0,0.2,0,0.3,0,0.5c-4.7,4.8-9,9.9-10.2,18.1c-0.8,2.1-0.8,7.4,0,9.5c1.1,11.1,8.7,18.5,14.4,23.6
		c-18.4-4.1-29.2-12.4-35.8-25.4c-6.8-13.4-6.1-32.1,1.4-44c3.7-5.9,12.3-12.7,12.1-22.7c-0.2-8.2-6.3-13.3-13.5-14.1
		c3.4-3.9,8.8-5.9,15.3-6.8c1.7,0,3.4,0,5.1,0c3-0.1,4.8,1.1,7.4,1.4c-0.5-4.4-4.3-9.4-3.7-16.3c0-2,0-3.9,0-5.9
		c0.3-9.2,3.7-15.5,7.9-20.9c1.7-1.3,3.3-2.8,4.6-4.5C151.8,89.3,152.1,89.2,152,88.9z"/>
	<rect x="233.1" y="212.3" class="st4" width="807.6" height="2"/>
</g>
</svg>
