<svg xmlns="http://www.w3.org/2000/svg" viewBox="0 0 114.88 166.23">
  <defs>
    <style>
      .cls-1 {
        fill: #dc7727;
        fill-rule: evenodd;
      }
    </style>
  </defs>
  <g id="Layer_2" data-name="Layer 2">
    <g id="Design">
      <path className="cls-1" d="M41.86,6.51c8-7.91,28.41-8.9,37.64-1.36C72.37,6.65,66.74,9.62,65.56,17c-.77,1.07-.77,5.27,0,6.35.8,8.84,7.46,14.68,13,20.87C83.83,50,89,56.39,93.91,62.77c10,13,21.82,29.42,20.92,51.28-1.11,27.06-18.43,45.14-43.23,51.72,9.16-6.94,17.42-14.75,19.06-29a16.37,16.37,0,0,0,0-8.62c-.58-5.78-2.86-9.9-6.51-12.7-1.92,6.89-7.31,10.4-14.87,11.8H64.63c-1.48-.08-2-1-3.72-.91,2.57-4.17,9.16-8.29,9.3-16.34a16.37,16.37,0,0,0,0-8.62c-.43-8.65-4.5-13.76-8.37-19.06a44.34,44.34,0,0,0-6-5.9c-1.26-.27-1.16-1.89-2.79-1.81.32,2.26,1.45,3.73,1.4,6.35v5c-.3,10.3-5.78,15.54-10.7,21.33A9.49,9.49,0,0,0,40.93,110a26,26,0,0,0-4.65,4.54V115c-4.7,4.79-9,10-10.23,18.15a20,20,0,0,0,0,9.53c1.15,11.13,8.66,18.47,14.41,23.6C22,162.17,11.22,153.86,4.67,140.81c-6.75-13.44-6.09-32.1,1.39-44,3.7-5.88,12.31-12.65,12.09-22.68C18,65.91,11.87,60.8,4.67,60.05c3.44-3.9,8.84-5.89,15.34-6.81h5.11c3.05-.1,4.81,1.06,7.44,1.37-.48-4.38-4.27-9.45-3.72-16.34v-5.9a33.91,33.91,0,0,1,7.9-20.87A25.31,25.31,0,0,0,41.39,7C41.67,6.94,41.94,6.89,41.86,6.51Z" />
    </g>
  </g>
</svg>